<?xml version="1.0" encoding="utf-8"?>
<svg version="1.1" xmlns="http://www.w3.org/2000/svg" xmlns:xlink="http://www.w3.org/1999/xlink" x="0px" y="0px"
	 viewBox="0 0 256 256" style="enable-background:new 0 0 256 256;" xml:space="preserve">
<style type="text/css">
	.st0{fill:#2676EA;}
	.st1{opacity:0.4;}
	.st2{fill:#FFFFFF;}
</style>
<g>
	<rect class="st0" width="256" height="256"/>
	<g class="st1">
		<path class="st2" d="M128,172.9c-24.8,0-44.9-20.2-44.9-44.9c0-24.8,20.2-44.9,44.9-44.9c24.8,0,44.9,20.2,44.9,44.9
			C172.9,152.8,152.8,172.9,128,172.9z M128,87.1c-22.6,0-40.9,18.4-40.9,40.9s18.4,40.9,40.9,40.9s40.9-18.4,40.9-40.9
			S150.6,87.1,128,87.1z"/>
	</g>
	<g class="st1">
		<path class="st2" d="M128,194.4c-36.6,0-66.4-29.8-66.4-66.4S91.4,61.6,128,61.6s66.4,29.8,66.4,66.4S164.6,194.4,128,194.4z
			 M128,65.6c-34.4,0-62.4,28-62.4,62.4c0,34.4,28,62.4,62.4,62.4c34.4,0,62.4-28,62.4-62.4C190.4,93.6,162.4,65.6,128,65.6z"/>
	</g>
	<g class="st1">
		<path class="st2" d="M128,215.9c-48.5,0-87.9-39.4-87.9-87.9c0-48.5,39.4-87.9,87.9-87.9c48.5,0,87.9,39.4,87.9,87.9
			C215.9,176.5,176.5,215.9,128,215.9z M128,44.1c-46.3,0-83.9,37.6-83.9,83.9s37.6,83.9,83.9,83.9s83.9-37.6,83.9-83.9
			S174.3,44.1,128,44.1z"/>
	</g>
	<path class="st2" d="M192.4,92.7c11.9,0,21.5-9.6,21.5-21.5s-9.6-21.5-21.5-21.5s-21.5,9.6-21.5,21.5c0,4.5,1.4,8.7,3.7,12.1
		l-32.5,28.6c-3.8-3.4-8.8-5.4-14.2-5.4c-3.8,0-7.4,1-10.5,2.7l-17.4-23.7c2.3-2.5,3.7-5.8,3.7-9.5c0-7.7-6.3-14-14-14
		s-14,6.3-14,14s6.3,14,14,14c2.1,0,4.2-0.5,6-1.4l17.4,23.7c-4.1,3.9-6.7,9.4-6.7,15.6c0,4.5,1.4,8.7,3.7,12.1l-32.5,28.6
		c-3.8-3.4-8.8-5.4-14.2-5.4c-11.9,0-21.5,9.6-21.5,21.5s9.6,21.5,21.5,21.5s21.5-9.6,21.5-21.5c0-4.5-1.4-8.7-3.7-12.1l32.5-28.6
		c3.8,3.4,8.8,5.4,14.2,5.4c0.1,0,0.3,0,0.4,0l3.8,25.9c-7.1,2.2-12.3,8.8-12.3,16.6c0,9.6,7.8,17.4,17.4,17.4
		c9.6,0,17.4-7.8,17.4-17.4c0-9.5-7.7-17.3-17.2-17.4l-3.8-26c4.2-1.2,7.9-3.6,10.7-6.8l24.5,16.1c-0.6,1.6-1,3.4-1,5.2
		c0,7.7,6.3,14,14,14s14-6.3,14-14s-6.3-14-14-14c-4,0-7.6,1.7-10.1,4.3l-24.5-16.1c1.4-2.9,2.2-6.1,2.2-9.5c0-4.5-1.4-8.7-3.7-12.1
		l32.5-28.6C182,90.6,187,92.7,192.4,92.7z"/>
</g>
</svg>
